<svg xmlns="http://www.w3.org/2000/svg" width="21" height="25"><path fill="#00B894" fill-rule="evenodd" d="M15.358 14.079h-3.239v3.16c0 .873-.725 1.58-1.619 1.58s-1.62-.707-1.62-1.58v-3.16H5.643c-.894 0-1.62-.708-1.62-1.58 0-.873.726-1.58 1.62-1.58h3.239v-3.16c0-.873.725-1.58 1.619-1.58s1.62.707 1.62 1.58v3.16h3.238c.894 0 1.62.707 1.62 1.58 0 .872-.726 1.58-1.62 1.58m4.955-9.252a1.424 1.424 0 0 0-.8-.932L11.105.129a1.486 1.486 0 0 0-1.212 0L1.488 3.895c-.397.178-.692.52-.8.932a20.88 20.88 0 0 0-.557 7.672 20.81 20.81 0 0 0 2.123 7.098c.05.1.114.194.187.28a17.435 17.435 0 0 0 6.693 4.777S9.855 25 10.5 25c.645 0 1.366-.346 1.366-.346 2.61-1.05 4.9-2.7 6.691-4.775.074-.086.137-.18.188-.28a20.806 20.806 0 0 0 2.124-7.1 21.052 21.052 0 0 0-.556-7.672"/></svg>